<?xml version="1.0" encoding="utf-8"?>
<!-- Generator: Adobe Illustrator 27.5.0, SVG Export Plug-In . SVG Version: 6.00 Build 0)  -->
<svg version="1.1" id="Layer_1" xmlns="http://www.w3.org/2000/svg" xmlns:xlink="http://www.w3.org/1999/xlink" x="0px" y="0px"
	 viewBox="0 0 300 300" style="enable-background:new 0 0 300 300;" xml:space="preserve">
<style type="text/css">
	.st0{fill:#792EE5;}
</style>
<path class="st0" d="M87.15,258.6l-62.9-36.11v-72.45V77.58l62.57-35.92c34.42-19.76,63-35.92,63.55-35.92
	c0.52,0,28.96,16.16,63.16,35.92l62.21,35.92v72.45v72.45l-43.98,25.26c-24.18,13.88-52.46,30.16-62.83,36.15l-18.85,10.86
	L87.15,258.6L87.15,258.6z M173.91,148.28l-14.79-14.37l6.4-27.14c3.51-14.92,6.27-27.5,6.14-27.95
	c-0.13-0.42-13.59,12.55-29.87,28.86l-29.61,29.68l14.82,14.3l14.82,14.3l-6.4,26.88c-3.51,14.79-6.4,27.5-6.4,28.25
	s13.42-12.09,29.84-28.54l29.84-29.9L173.91,148.28z"/>
</svg>
